<?xml version="1.0" standalone="no"?>
<!DOCTYPE svg PUBLIC "-//W3C//DTD SVG 20010904//EN"
 "http://www.w3.org/TR/2001/REC-SVG-20010904/DTD/svg10.dtd">
<svg version="1.0" xmlns="http://www.w3.org/2000/svg"
 width="1024.000000pt" height="1024.000000pt" viewBox="0 0 1024.000000 1024.000000"
 preserveAspectRatio="xMidYMid meet">

<g transform="translate(0.000000,1024.000000) scale(0.100000,-0.100000)"
fill="#000000" stroke="none">
<path d="M8270 9704 c-25 -9 -63 -29 -85 -44 -47 -34 -4573 -4561 -4602 -4605
-12 -16 -200 -448 -418 -960 -438 -1023 -427 -992 -390 -1107 48 -155 213
-259 365 -230 32 6 442 176 985 408 l930 397 2290 2286 c1260 1257 2307 2309
2327 2338 65 93 73 214 23 318 -19 39 -146 171 -582 607 -460 460 -567 561
-608 579 -66 29 -174 35 -235 13z m383 -1062 l277 -277 -293 -293 -292 -292
-280 280 -280 280 290 290 c159 160 292 290 295 290 3 0 130 -125 283 -278z
m-2233 -2787 l-1615 -1615 -280 280 -280 280 1615 1615 1615 1615 280 -280
280 -280 -1615 -1615z m-2200 -1650 c107 -107 192 -196 190 -198 -9 -8 -685
-296 -688 -293 -4 5 290 686 297 686 3 0 94 -88 201 -195z"/>
<path d="M773 8310 c-97 -20 -186 -92 -232 -189 l-26 -56 0 -3645 0 -3645 33
-67 c36 -73 86 -123 161 -160 l46 -23 3655 0 3655 0 47 22 c66 30 129 92 164
160 l29 58 0 1865 0 1865 -26 55 c-37 80 -81 125 -157 162 -57 28 -76 33 -142
33 -66 0 -85 -5 -143 -33 -72 -36 -122 -86 -159 -161 l-23 -46 -3 -1662 -2
-1663 -3240 0 -3240 0 0 3240 0 3240 1650 0 1649 0 58 21 c72 28 144 94 180
168 24 48 28 68 28 141 -1 77 -4 91 -34 148 -40 74 -84 115 -161 151 l-55 26
-1835 1 c-1009 1 -1854 -2 -1877 -6z"/>
</g>
</svg>
