<?xml version="1.0" standalone="no"?>
<!DOCTYPE svg PUBLIC "-//W3C//DTD SVG 20010904//EN"
 "http://www.w3.org/TR/2001/REC-SVG-20010904/DTD/svg10.dtd">
<svg version="1.0" xmlns="http://www.w3.org/2000/svg"
 width="360.000000pt" height="420.000000pt" viewBox="0 0 360.000000 420.000000"
 preserveAspectRatio="xMidYMid meet">

<g transform="translate(0.000000,420.000000) scale(0.100000,-0.100000)"
fill="#000000" stroke="none">
<path d="M1544 4180 c-99 -39 -177 -134 -190 -234 l-7 -46 -464 0 c-514 0
-510 0 -556 -64 -31 -43 -31 -129 0 -172 49 -69 -57 -64 1473 -64 1530 0 1424
-5 1473 64 16 23 22 45 22 86 0 41 -6 63 -22 86 -46 64 -42 64 -556 64 l-464
0 -7 48 c-12 89 -76 175 -170 225 -38 21 -56 22 -261 24 -199 2 -225 1 -271
-17z"/>
<path d="M82 3283 c-52 -25 -77 -69 -77 -133 0 -41 6 -63 22 -86 36 -50 77
-64 192 -64 l100 0 6 -32 c3 -18 102 -673 219 -1454 233 -1553 215 -1462 290
-1498 31 -14 127 -16 966 -16 839 0 935 2 966 16 75 36 57 -55 290 1498 117
781 216 1436 219 1454 l6 32 100 0 c115 0 156 14 192 64 31 43 31 129 0 172
-49 69 90 64 -1775 64 -1530 0 -1686 -2 -1716 -17z m1128 -316 c0 -18 29 -617
65 -1330 36 -713 65 -1306 65 -1317 0 -19 -7 -20 -155 -20 -85 0 -155 1 -155
3 0 1 -92 608 -203 1350 l-203 1347 293 0 293 0 0 -33z m880 13 c0 -11 -29
-604 -65 -1317 -36 -713 -65 -1312 -65 -1330 l0 -33 -160 0 -160 0 0 33 c0 17
-29 615 -65 1327 -36 712 -65 1305 -65 1318 l0 22 290 0 c283 0 290 0 290 -20z
m880 1 c0 -18 -386 -2602 -396 -2654 l-6 -27 -154 0 c-153 0 -154 0 -154 23 0
12 29 605 65 1317 36 712 65 1310 65 1328 l0 32 290 0 c276 0 290 -1 290 -19z"/>
</g>
</svg>
