<?xml version="1.0" standalone="no"?>
<!DOCTYPE svg PUBLIC "-//W3C//DTD SVG 20010904//EN"
 "http://www.w3.org/TR/2001/REC-SVG-20010904/DTD/svg10.dtd">
<svg version="1.0" xmlns="http://www.w3.org/2000/svg"
 width="225.000000pt" height="225.000000pt" viewBox="0 0 225.000000 225.000000"
 preserveAspectRatio="xMidYMid meet">
<metadata>
Created by potrace 1.16, written by Peter Selinger 2001-2019
</metadata>
<g transform="translate(0.000000,225.000000) scale(0.100000,-0.100000)"
fill="#000000" stroke="none">
<path d="M0 1125 l0 -1125 1125 0 1125 0 0 471 0 471 -32 -43 c-41 -53 -79
-82 -99 -74 -14 5 -111 151 -125 188 -8 22 13 47 40 47 11 -1 65 -16 119 -34
l97 -33 0 102 0 102 -53 -18 c-76 -25 -171 -43 -191 -36 -9 4 -19 13 -22 21
-9 25 123 206 150 206 20 0 73 -62 95 -110 l21 -45 0 518 0 517 -1125 0 -1125
0 0 -1125z m1889 491 c15 -17 33 -225 29 -326 -3 -67 -5 -75 -23 -78 -12 -2
-30 7 -42 20 -39 44 -194 299 -191 316 5 29 119 76 199 81 9 1 22 -5 28 -13z
m-1630 -323 c13 -11 34 -59 54 -122 l34 -103 21 50 c12 28 22 60 22 71 0 12 4
21 10 21 5 0 12 16 16 35 3 20 15 40 25 45 22 12 96 13 103 2 5 -9 -43 -163
-90 -287 -14 -38 -30 -83 -35 -99 -5 -16 -12 -32 -16 -35 -5 -3 -17 -33 -27
-66 -28 -87 -62 -150 -92 -174 -49 -39 -141 -22 -177 32 -13 21 -14 30 -3 61
20 57 28 61 87 48 65 -15 69 -15 69 4 0 9 7 29 17 44 15 27 15 31 -7 92 -13
34 -27 65 -30 68 -13 10 -110 304 -103 311 5 4 26 9 48 12 22 2 43 4 46 5 4 1
16 -6 28 -15z m861 2 c6 -3 10 -22 10 -41 l0 -34 46 35 c53 41 81 49 135 42
80 -11 146 -79 167 -172 25 -115 25 -147 -3 -200 -52 -97 -103 -135 -185 -135
-53 0 -99 18 -137 53 l-23 20 0 -122 c0 -121 0 -122 -26 -131 -33 -13 -55 -12
-75 3 -14 11 -17 52 -22 314 -2 166 -8 306 -12 312 -10 18 5 52 28 61 23 9 80
6 97 -5z m-244 -41 c67 -56 75 -86 77 -289 l2 -170 -40 0 c-31 0 -42 5 -50 22
l-11 22 -22 -22 c-32 -31 -144 -36 -189 -8 -59 37 -81 136 -43 198 28 46 61
64 130 70 57 5 60 7 60 32 0 49 -13 56 -67 42 -82 -21 -85 -20 -110 29 -21 42
-21 45 -5 64 33 37 92 57 159 53 56 -3 67 -7 109 -43z m835 -60 c108 -44 139
-63 139 -84 0 -24 -31 -40 -144 -75 -81 -25 -90 -26 -104 -11 -20 19 -21 140
-3 174 15 28 33 28 112 -4z m207 -284 c4 -141 1 -150 -46 -150 -50 0 -146 48
-150 75 -1 13 23 50 69 103 60 71 75 83 97 80 l27 -3 3 -105z"/>
<path d="M1245 1142 c-21 -14 -35 -64 -35 -122 0 -49 4 -61 22 -74 23 -16 83
-21 112 -10 18 7 23 96 6 138 -22 58 -73 91 -105 68z"/>
</g>
</svg>
